HIERARCHY
ROOT Hips
{
	OFFSET -36.480297 -30.199697 87.527466
	CHANNELS 6 Xposition Yposition Zposition Zrotation Yrotation Xrotation
	JOINT Spine
	{
		OFFSET 0.000000 2.080109 8.814247
		CHANNELS 6 Xposition Yposition Zposition Zrotation Yrotation Xrotation
		JOINT Spine1
		{
			OFFSET 0.000000 0.000000 8.844139
			CHANNELS 6 Xposition Yposition Zposition Zrotation Yrotation Xrotation
			JOINT Spine2
			{
				OFFSET 0.000000 0.000002 11.682266
				CHANNELS 6 Xposition Yposition Zposition Zrotation Yrotation Xrotation
				JOINT Spine3
				{
					OFFSET 0.000000 0.000000 11.746704
					CHANNELS 6 Xposition Yposition Zposition Zrotation Yrotation Xrotation
					JOINT Neck
					{
						OFFSET 0.000000 0.000002 17.658264
						CHANNELS 6 Xposition Yposition Zposition Zrotation Yrotation Xrotation
						JOINT Neck1
						{
							OFFSET 0.000000 0.000000 5.101517
							CHANNELS 6 Xposition Yposition Zposition Zrotation Yrotation Xrotation
							JOINT Head
							{
								OFFSET 0.000000 0.000000 5.101517
								CHANNELS 6 Xposition Yposition Zposition Zrotation Yrotation Xrotation
								JOINT HeadEnd
								{
									OFFSET 0.000000 0.000002 11.655090
									CHANNELS 6 Xposition Yposition Zposition Zrotation Yrotation Xrotation
									End Site
									{
										OFFSET 0.000000 0.000000 0.100006
									}
								}
							}
						}
					}
					JOINT RightShoulder
					{
						OFFSET -2.625389 0.000002 11.175217
						CHANNELS 6 Xposition Yposition Zposition Zrotation Yrotation Xrotation
						JOINT RightArm
						{
							OFFSET 0.000000 0.000000 10.434723
							CHANNELS 6 Xposition Yposition Zposition Zrotation Yrotation Xrotation
							JOINT RightForeArm
							{
								OFFSET 0.000000 0.000002 29.628418
								CHANNELS 6 Xposition Yposition Zposition Zrotation Yrotation Xrotation
								JOINT RightHand
								{
									OFFSET 0.000000 0.000002 22.857605
									CHANNELS 6 Xposition Yposition Zposition Zrotation Yrotation Xrotation
									JOINT RightHandThumb1
									{
										OFFSET -2.867321 -2.944292 3.959564
										CHANNELS 6 Xposition Yposition Zposition Zrotation Yrotation Xrotation
										JOINT RightHandThumb2
										{
											OFFSET 0.000000 0.000000 3.350403
											CHANNELS 6 Xposition Yposition Zposition Zrotation Yrotation Xrotation
											JOINT RightHandThumb3
											{
												OFFSET 0.000000 0.000000 3.756516
												CHANNELS 6 Xposition Yposition Zposition Zrotation Yrotation Xrotation
												JOINT RightHandThumb4
												{
													OFFSET 0.000000 0.000002 3.147339
													CHANNELS 6 Xposition Yposition Zposition Zrotation Yrotation Xrotation
													End Site
													{
														OFFSET 0.000000 0.000000 0.100006
													}
												}
											}
										}
									}
									JOINT RightHandIndex1
									{
										OFFSET -0.086754 -2.345280 10.030899
										CHANNELS 6 Xposition Yposition Zposition Zrotation Yrotation Xrotation
										JOINT RightHandIndex2
										{
											OFFSET 0.000000 0.000002 4.061096
											CHANNELS 6 Xposition Yposition Zposition Zrotation Yrotation Xrotation
											JOINT RightHandIndex3
											{
												OFFSET 0.000000 0.000000 3.248871
												CHANNELS 6 Xposition Yposition Zposition Zrotation Yrotation Xrotation
												JOINT RightHandIndex4
												{
													OFFSET 0.000000 0.000000 2.639709
													CHANNELS 6 Xposition Yposition Zposition Zrotation Yrotation Xrotation
													End Site
													{
														OFFSET 0.000000 0.000000 0.100006
													}
												}
											}
										}
									}
									JOINT RightHandMiddle1
									{
										OFFSET 0.104103 -0.006767 9.502945
										CHANNELS 6 Xposition Yposition Zposition Zrotation Yrotation Xrotation
										JOINT RightHandMiddle2
										{
											OFFSET 0.000000 0.000002 4.568726
											CHANNELS 6 Xposition Yposition Zposition Zrotation Yrotation Xrotation
											JOINT RightHandMiddle3
											{
												OFFSET 0.000000 0.000000 3.654984
												CHANNELS 6 Xposition Yposition Zposition Zrotation Yrotation Xrotation
												JOINT RightHandMiddle4
												{
													OFFSET 0.000000 0.000000 2.741241
													CHANNELS 6 Xposition Yposition Zposition Zrotation Yrotation Xrotation
													End Site
													{
														OFFSET 0.000000 0.000000 0.100006
													}
												}
											}
										}
									}
									JOINT RightHandRing1
									{
										OFFSET 0.086754 2.267443 8.921707
										CHANNELS 6 Xposition Yposition Zposition Zrotation Yrotation Xrotation
										JOINT RightHandRing2
										{
											OFFSET 0.000000 0.000002 4.061096
											CHANNELS 6 Xposition Yposition Zposition Zrotation Yrotation Xrotation
											JOINT RightHandRing3
											{
												OFFSET 0.000000 0.000000 3.654984
												CHANNELS 6 Xposition Yposition Zposition Zrotation Yrotation Xrotation
												JOINT RightHandRing4
												{
													OFFSET 0.000000 0.000000 2.741241
													CHANNELS 6 Xposition Yposition Zposition Zrotation Yrotation Xrotation
													End Site
													{
														OFFSET 0.000000 0.000000 0.100006
													}
												}
											}
										}
									}
									JOINT RightHandPinky1
									{
										OFFSET -0.173504 4.467199 7.976990
										CHANNELS 6 Xposition Yposition Zposition Zrotation Yrotation Xrotation
										JOINT RightHandPinky2
										{
											OFFSET 0.000000 0.000000 3.350403
											CHANNELS 6 Xposition Yposition Zposition Zrotation Yrotation Xrotation
											JOINT RightHandPinky3
											{
												OFFSET 0.000000 0.000002 2.842758
												CHANNELS 6 Xposition Yposition Zposition Zrotation Yrotation Xrotation
												JOINT RightHandPinky4
												{
													OFFSET 0.000000 0.000000 2.639709
													CHANNELS 6 Xposition Yposition Zposition Zrotation Yrotation Xrotation
													End Site
													{
														OFFSET 0.000000 0.000000 0.100006
													}
												}
											}
										}
									}
									JOINT RightForeArmEnd
									{
										OFFSET 0.000000 0.000000 0.000000
										CHANNELS 6 Xposition Yposition Zposition Zrotation Yrotation Xrotation
										End Site
										{
											OFFSET 0.000000 0.000000 0.100006
										}
									}
								}
								JOINT RightArmEnd
								{
									OFFSET 0.000000 0.000000 0.000000
									CHANNELS 6 Xposition Yposition Zposition Zrotation Yrotation Xrotation
									End Site
									{
										OFFSET 0.000000 0.000000 0.100006
									}
								}
							}
						}
					}
					JOINT LeftShoulder
					{
						OFFSET 2.625389 0.000002 11.175217
						CHANNELS 6 Xposition Yposition Zposition Zrotation Yrotation Xrotation
						JOINT LeftArm
						{
							OFFSET 0.000000 0.000000 10.813629
							CHANNELS 6 Xposition Yposition Zposition Zrotation Yrotation Xrotation
							JOINT LeftForeArm
							{
								OFFSET 0.000000 0.000002 28.724777
								CHANNELS 6 Xposition Yposition Zposition Zrotation Yrotation Xrotation
								JOINT LeftHand
								{
									OFFSET 0.644382 0.328873 25.716171
									CHANNELS 6 Xposition Yposition Zposition Zrotation Yrotation Xrotation
									JOINT LeftHandThumb1
									{
										OFFSET 2.867323 -2.944290 3.959564
										CHANNELS 6 Xposition Yposition Zposition Zrotation Yrotation Xrotation
										JOINT LeftHandThumb2
										{
											OFFSET 0.000000 0.000000 3.350403
											CHANNELS 6 Xposition Yposition Zposition Zrotation Yrotation Xrotation
											JOINT LeftHandThumb3
											{
												OFFSET 0.000000 0.000002 3.756516
												CHANNELS 6 Xposition Yposition Zposition Zrotation Yrotation Xrotation
												JOINT LeftHandThumb4
												{
													OFFSET 0.000000 0.000000 3.100006
													CHANNELS 6 Xposition Yposition Zposition Zrotation Yrotation Xrotation
													End Site
													{
														OFFSET 0.000000 0.000000 0.100006
													}
												}
											}
										}
									}
									JOINT LeftHandIndex1
									{
										OFFSET 0.086754 -2.345278 10.030899
										CHANNELS 6 Xposition Yposition Zposition Zrotation Yrotation Xrotation
										JOINT LeftHandIndex2
										{
											OFFSET 0.000000 0.000000 4.061096
											CHANNELS 6 Xposition Yposition Zposition Zrotation Yrotation Xrotation
											JOINT LeftHandIndex3
											{
												OFFSET 0.000000 0.000000 3.248871
												CHANNELS 6 Xposition Yposition Zposition Zrotation Yrotation Xrotation
												JOINT LeftHandIndex4
												{
													OFFSET 0.000000 0.000000 2.639709
													CHANNELS 6 Xposition Yposition Zposition Zrotation Yrotation Xrotation
													End Site
													{
														OFFSET 0.000000 0.000000 0.100006
													}
												}
											}
										}
									}
									JOINT LeftHandMiddle1
									{
										OFFSET -0.104103 -0.006767 9.502945
										CHANNELS 6 Xposition Yposition Zposition Zrotation Yrotation Xrotation
										JOINT LeftHandMiddle2
										{
											OFFSET 0.000000 0.000002 4.568726
											CHANNELS 6 Xposition Yposition Zposition Zrotation Yrotation Xrotation
											JOINT LeftHandMiddle3
											{
												OFFSET 0.000000 0.000000 3.654984
												CHANNELS 6 Xposition Yposition Zposition Zrotation Yrotation Xrotation
												JOINT LeftHandMiddle4
												{
													OFFSET 0.000000 0.000000 2.741241
													CHANNELS 6 Xposition Yposition Zposition Zrotation Yrotation Xrotation
													End Site
													{
														OFFSET 0.000000 0.000000 0.100006
													}
												}
											}
										}
									}
									JOINT LeftHandRing1
									{
										OFFSET -0.086754 2.267443 8.921707
										CHANNELS 6 Xposition Yposition Zposition Zrotation Yrotation Xrotation
										JOINT LeftHandRing2
										{
											OFFSET 0.000000 0.000002 4.061096
											CHANNELS 6 Xposition Yposition Zposition Zrotation Yrotation Xrotation
											JOINT LeftHandRing3
											{
												OFFSET 0.000000 0.000000 3.654984
												CHANNELS 6 Xposition Yposition Zposition Zrotation Yrotation Xrotation
												JOINT LeftHandRing4
												{
													OFFSET 0.000000 0.000000 2.741241
													CHANNELS 6 Xposition Yposition Zposition Zrotation Yrotation Xrotation
													End Site
													{
														OFFSET 0.000000 0.000000 0.100006
													}
												}
											}
										}
									}
									JOINT LeftHandPinky1
									{
										OFFSET 0.173504 4.467199 7.976990
										CHANNELS 6 Xposition Yposition Zposition Zrotation Yrotation Xrotation
										JOINT LeftHandPinky2
										{
											OFFSET 0.000000 0.000002 3.350403
											CHANNELS 6 Xposition Yposition Zposition Zrotation Yrotation Xrotation
											JOINT LeftHandPinky3
											{
												OFFSET 0.000000 0.000000 2.842758
												CHANNELS 6 Xposition Yposition Zposition Zrotation Yrotation Xrotation
												JOINT LeftHandPinky4
												{
													OFFSET 0.000000 0.000000 2.639709
													CHANNELS 6 Xposition Yposition Zposition Zrotation Yrotation Xrotation
													End Site
													{
														OFFSET 0.000000 0.000000 0.100006
													}
												}
											}
										}
									}
									JOINT LeftForeArmEnd
									{
										OFFSET 0.000000 0.000000 0.000000
										CHANNELS 6 Xposition Yposition Zposition Zrotation Yrotation Xrotation
										End Site
										{
											OFFSET 0.000000 0.000000 0.100006
										}
									}
								}
								JOINT LeftArmEnd
								{
									OFFSET 0.000000 0.000000 0.000000
									CHANNELS 6 Xposition Yposition Zposition Zrotation Yrotation Xrotation
									End Site
									{
										OFFSET 0.000000 0.000000 0.100006
									}
								}
							}
						}
					}
				}
			}
		}
	}
	JOINT RightUpLeg
	{
		OFFSET -11.289944 0.000000 0.000000
		CHANNELS 6 Xposition Yposition Zposition Zrotation Yrotation Xrotation
		JOINT RightLeg
		{
			OFFSET 0.000000 -0.000002 -38.200321
			CHANNELS 6 Xposition Yposition Zposition Zrotation Yrotation Xrotation
			JOINT RightFoot
			{
				OFFSET 0.000000 -0.000004 -39.900856
				CHANNELS 6 Xposition Yposition Zposition Zrotation Yrotation Xrotation
				JOINT RightToeBase
				{
					OFFSET 0.000000 -15.261639 0.000002
					CHANNELS 6 Xposition Yposition Zposition Zrotation Yrotation Xrotation
					JOINT RightToeBaseEnd
					{
						OFFSET 0.000000 -7.370708 0.000000
						CHANNELS 6 Xposition Yposition Zposition Zrotation Yrotation Xrotation
						End Site
						{
							OFFSET 0.000000 0.000000 0.100000
						}
					}
				}
				JOINT RightLegEnd
				{
					OFFSET 0.000000 0.000000 0.000000
					CHANNELS 6 Xposition Yposition Zposition Zrotation Yrotation Xrotation
					End Site
					{
						OFFSET 0.000000 0.000000 0.100000
					}
				}
			}
			JOINT RightUpLegEnd
			{
				OFFSET 0.000000 0.000000 0.000000
				CHANNELS 6 Xposition Yposition Zposition Zrotation Yrotation Xrotation
				End Site
				{
					OFFSET 0.000000 0.000000 0.099998
				}
			}
		}
	}
	JOINT LeftUpLeg
	{
		OFFSET 11.315662 0.000000 0.000000
		CHANNELS 6 Xposition Yposition Zposition Zrotation Yrotation Xrotation
		JOINT LeftLeg
		{
			OFFSET 0.000000 -0.000002 -38.200321
			CHANNELS 6 Xposition Yposition Zposition Zrotation Yrotation Xrotation
			JOINT LeftFoot
			{
				OFFSET 0.000000 -0.000004 -39.900856
				CHANNELS 6 Xposition Yposition Zposition Zrotation Yrotation Xrotation
				JOINT LeftToeBase
				{
					OFFSET 0.000000 -15.261639 0.000002
					CHANNELS 6 Xposition Yposition Zposition Zrotation Yrotation Xrotation
					JOINT LeftToeBaseEnd
					{
						OFFSET 0.000000 -7.539997 0.000000
						CHANNELS 6 Xposition Yposition Zposition Zrotation Yrotation Xrotation
						End Site
						{
							OFFSET 0.000000 0.000000 0.100000
						}
					}
				}
				JOINT LeftLegEnd
				{
					OFFSET 0.000000 0.000000 0.000000
					CHANNELS 6 Xposition Yposition Zposition Zrotation Yrotation Xrotation
					End Site
					{
						OFFSET 0.000000 0.000000 0.100000
					}
				}
			}
			JOINT LeftUpLegEnd
			{
				OFFSET 0.000000 0.000000 0.000000
				CHANNELS 6 Xposition Yposition Zposition Zrotation Yrotation Xrotation
				End Site
				{
					OFFSET 0.000000 0.000000 0.099998
				}
			}
		}
	}
}
MOTION
Frames: 2
Frame Time: 0.016667
-4.782553 -2.448263 82.155861 16.158112 -0.366267 2.254402 -0.000002 2.080100 8.814237 -0.307194 -2.439017 9.251847 -0.000001 -0.000003 8.844156 -1.192356 -3.252401 16.397700 -0.000003 0.000007 11.682280 -0.329738 -1.590285 17.688815 0.000000 0.000001 11.746732 0.415769 -0.362040 4.090600 0.000002 -0.000005 17.658249 -8.445404 -22.485186 25.674500 0.000004 0.000001 5.101523 -1.624111 2.340695 3.222991 -0.000000 0.000006 5.101527 2.972245 -0.797448 -18.373871 0.000004 -0.000009 11.655105 -0.000001 -0.000000 0.000001 -2.625403 -0.000006 11.175200 12.942535 -88.490572 -0.615955 -0.000012 0.000003 10.434742 -56.963986 -7.498781 59.150353 0.000002 -0.000012 29.628414 15.444244 -0.046689 52.110471 0.000004 0.000009 22.857613 -30.362773 4.267304 -6.654585 -2.867317 -2.944295 3.959547 31.497660 -19.046507 48.857562 -0.000005 0.000002 3.350397 -16.635680 9.763154 -29.415914 -0.000003 0.000012 3.756505 -11.011538 7.710585 -20.083152 -0.000004 0.000000 3.147340 0.000000 0.000000 -0.000002 -0.086749 -2.345284 10.030902 -15.634938 -29.043317 14.671496 -0.000003 0.000006 4.061123 -0.117331 -21.744355 3.213357 0.000011 -0.000003 3.248864 -0.617332 -21.744459 3.213353 0.000004 0.000008 2.639708 -0.000002 -0.000000 0.000002 0.104095 -0.006773 9.502968 -8.998647 -26.393297 7.652384 0.000002 0.000002 4.568734 0.326012 -19.050832 1.036969 -0.000009 0.000004 3.655000 -0.174081 -19.050847 1.036996 0.000003 0.000007 2.741258 -0.000003 0.000001 -0.000003 0.086740 2.267438 8.921738 1.343373 -18.682444 0.045710 -0.000006 0.000007 4.061089 -0.904669 -13.216892 -0.823065 -0.000004 0.000001 3.655024 0.095372 -13.216904 -0.823052 0.000002 -0.000001 2.741244 -0.000002 0.000003 -0.000002 -0.173505 4.467202 7.976990 11.337404 -8.814644 -6.359280 -0.000001 -0.000005 3.350421 -1.916581 -6.989415 -1.365502 0.000006 -0.000000 2.842786 0.083392 -6.989412 -1.365519 -0.000002 -0.000002 2.639743 -0.000001 0.000002 -0.000003 -0.000001 -0.000001 -0.000001 -0.000000 0.000001 0.000004 0.000002 0.000004 -0.000017 -0.000000 -0.000001 0.000003 2.625397 -0.000010 11.175205 -192.402099 90.675918 -179.562928 0.000011 -0.000011 10.813646 54.348549 9.423354 63.092213 0.000001 -0.000017 28.724773 -9.987720 -0.071524 53.821655 0.644380 0.328871 25.716148 27.518778 5.552443 -10.671996 2.867320 -2.944289 3.959560 -31.742594 16.402163 52.841847 -0.000002 -0.000007 3.350417 10.770509 -7.598550 -19.674336 -0.000001 -0.000001 3.756500 7.196756 -5.677172 -13.491691 0.000001 0.000008 3.100022 -0.000003 -0.000001 -0.000002 0.086762 -2.345282 10.030916 -6.047638 15.872149 3.203586 0.000000 -0.000001 4.061107 0.356102 10.716564 -1.524263 0.000005 0.000000 3.248873 -0.145614 10.716541 -1.524597 0.000005 0.000000 2.639724 0.000001 -0.000000 0.000002 -0.104100 -0.006769 9.502959 -1.272650 13.077046 2.469343 0.000005 -0.000000 4.568751 0.459784 9.160208 -0.484455 -0.000001 0.000004 3.654987 -0.044536 9.160210 -0.485108 -0.000003 0.000002 2.741242 0.000000 0.000003 0.000003 -0.086754 2.267443 8.921727 5.992290 7.950333 3.323120 0.000002 0.000001 4.061108 -0.983010 5.808751 0.360071 0.000006 0.000000 3.655002 0.021068 5.808509 0.359569 -0.000003 0.000002 2.741256 0.000000 -0.000002 -0.000001 0.173503 4.467197 7.976999 13.541814 2.558511 2.406041 0.000002 0.000001 3.350399 -1.996656 2.118552 0.411887 -0.000004 -0.000001 2.842756 -0.002752 2.113556 0.414595 0.000003 -0.000003 2.639679 0.000001 0.000000 -0.000001 -0.000001 -0.000002 0.000016 0.000001 0.000000 -0.000001 -0.000007 0.000004 0.000000 -0.000001 -0.000001 -0.000002 -11.289946 -0.000002 -0.000014 -3.333499 6.474497 -24.254229 -0.000000 0.000002 -38.200321 -0.227159 0.259885 48.648962 -0.000004 -0.000008 -39.900852 -10.227503 -4.197816 6.776169 -0.000002 -15.261635 0.000001 -0.549747 -0.635245 -30.218563 -0.000000 -7.370708 -0.000001 -0.000000 -0.000001 -0.000000 0.000004 -0.000000 -0.000001 0.000000 0.000000 0.000001 -0.000001 -0.000002 0.000000 -0.000001 0.000000 0.000000 11.315660 -0.000002 -0.000016 9.458108 -2.893187 -26.222092 -0.000000 0.000007 -38.200314 0.212602 -0.226944 47.048751 -0.000003 -0.000001 -39.900856 9.029040 1.195346 6.619775 -0.000003 -15.261637 0.000006 -0.803098 1.461608 -29.294931 -0.000000 -7.539998 -0.000001 0.000002 0.000001 0.000000 0.000002 0.000005 -0.000001 0.000002 0.000000 -0.000002 0.000001 -0.000001 -0.000004 -0.000001 0.000001 0.000001 
-4.671101 -2.366234 82.102722 15.984953 -0.323956 2.373253 0.000000 2.080104 8.814256 -0.308526 -2.415601 9.290151 -0.000001 0.000001 8.844131 -1.153165 -3.167846 16.405291 -0.000003 -0.000002 11.682250 -0.265544 -1.542335 17.605074 -0.000005 0.000006 11.746715 0.432405 -0.352522 4.060990 -0.000001 -0.000001 17.658283 -8.258827 -22.348425 25.431629 -0.000001 0.000001 5.101521 -1.512630 2.318743 3.133466 0.000001 0.000007 5.101536 2.976938 -0.796080 -18.328905 -0.000009 0.000009 11.655088 0.000000 -0.000002 0.000001 -2.625412 -0.000005 11.175230 13.041888 -88.373379 -0.578836 -0.000021 0.000003 10.434712 -57.111699 -7.748850 59.282463 -0.000002 -0.000005 29.628410 15.248280 -0.069942 52.451867 -0.000001 0.000003 22.857626 -29.296792 3.990071 -6.070879 -2.867315 -2.944286 3.959563 31.493323 -19.227403 48.594074 -0.000005 -0.000010 3.350401 -17.040046 9.871816 -30.074631 -0.000001 0.000008 3.756548 -11.274528 7.830388 -20.528301 -0.000002 0.000003 3.147322 0.000001 -0.000000 0.000002 -0.086755 -2.345282 10.030903 -15.837426 -29.631775 15.157440 -0.000007 0.000000 4.061115 -0.145499 -22.204469 3.288674 -0.000011 0.000004 3.248896 -0.645518 -22.204445 3.288661 0.000004 -0.000004 2.639709 0.000002 -0.000001 0.000001 0.104097 -0.006771 9.502940 -9.139974 -26.931214 8.098597 0.000007 0.000002 4.568737 0.318203 -19.452596 1.060589 -0.000001 0.000005 3.655013 -0.181799 -19.452606 1.060599 0.000003 0.000001 2.741226 -0.000001 -0.000000 0.000000 0.086751 2.267441 8.921728 1.265768 -19.175165 0.458834 -0.000013 0.000002 4.061123 -0.900471 -13.542806 -0.843979 -0.000007 0.000001 3.655003 0.100096 -13.542901 -0.844071 0.000005 0.000003 2.741259 -0.000002 0.000002 -0.000002 -0.173512 4.467198 7.976981 11.284099 -9.356573 -5.996130 -0.000001 -0.000000 3.350411 -1.909078 -7.300991 -1.427013 0.000000 0.000000 2.842767 0.090930 -7.300899 -1.427011 0.000001 0.000002 2.639725 -0.000002 0.000002 0.000002 -0.000002 0.000001 -0.000014 0.000004 0.000001 -0.000000 -0.000005 0.000006 0.000015 -0.000000 0.000000 0.000001 2.625396 -0.000005 11.175219 -192.699745 90.802044 -179.860533 0.000023 -0.000016 10.813639 54.352583 9.175837 63.138207 -0.000010 -0.000005 28.724785 -9.825400 -0.076945 53.739140 0.644382 0.328876 25.716175 27.666626 5.437666 -10.630321 2.867316 -2.944288 3.959561 -31.742597 16.402170 52.841875 0.000001 -0.000001 3.350410 10.770523 -7.598556 -19.674269 -0.000001 -0.000005 3.756536 7.196787 -5.677133 -13.491751 0.000000 -0.000002 3.100022 0.000001 -0.000001 -0.000002 0.086761 -2.345279 10.030898 -6.011156 16.160335 3.644269 0.000009 0.000003 4.061111 0.352816 10.871447 -1.546679 0.000004 0.000000 3.248881 -0.148272 10.871583 -1.546877 0.000009 0.000001 2.639694 0.000000 -0.000001 -0.000000 -0.104097 -0.006769 9.502970 -1.243919 13.263142 2.881044 -0.000003 0.000004 4.568737 0.458992 9.274331 -0.490873 0.000002 -0.000001 3.654998 -0.045235 9.274338 -0.491510 0.000003 -0.000002 2.741225 -0.000000 -0.000002 0.000001 -0.086752 2.267440 8.921706 6.002272 7.983783 3.677794 0.000003 0.000005 4.061116 -0.981893 5.851764 0.360210 0.000001 0.000000 3.655005 0.021226 5.851916 0.360647 0.000001 -0.000003 2.741254 -0.000000 -0.000002 0.000003 0.173504 4.467196 7.976986 13.538206 2.488056 2.678198 0.000001 0.000004 3.350419 -1.996598 2.112247 0.410518 -0.000001 0.000001 2.842757 -0.001613 2.111669 0.410304 -0.000002 -0.000004 2.639695 -0.000001 0.000000 -0.000002 -0.000002 -0.000002 0.000015 0.000000 0.000001 0.000001 -0.000010 0.000001 0.000016 0.000001 -0.000000 -0.000003 -11.289944 -0.000003 0.000001 -3.377178 6.535203 -24.559579 -0.000001 0.000010 -38.200329 -0.226772 0.260155 48.816257 -0.000000 -0.000003 -39.900856 -10.017468 -4.217045 6.823630 0.000004 -15.261640 0.000001 -0.536089 -0.628230 -30.259381 -0.000000 -7.370708 -0.000000 -0.000000 -0.000001 -0.000000 0.000000 -0.000001 0.000000 -0.000000 0.000000 -0.000000 -0.000001 0.000002 -0.000001 -0.000000 0.000000 0.000001 11.315659 -0.000002 -0.000001 9.425180 -2.821223 -26.491993 -0.000004 0.000006 -38.200317 0.205769 -0.223664 47.354791 -0.000002 -0.000002 -39.900856 9.248128 1.207623 6.525763 0.000002 -15.261642 0.000004 -0.799358 1.485559 -29.292936 0.000004 -7.539991 -0.000001 0.000003 -0.000000 -0.000000 0.000003 0.000003 -0.000001 -0.000003 0.000001 -0.000000 0.000001 -0.000002 -0.000000 -0.000001 0.000001 0.000001 
